<?xml version="1.0" encoding="UTF-8" standalone="no" ?>
<!DOCTYPE svg PUBLIC "-//W3C//DTD SVG 1.1//EN" "http://www.w3.org/Graphics/SVG/1.1/DTD/svg11.dtd">
<svg xmlns="http://www.w3.org/2000/svg" xmlns:xlink="http://www.w3.org/1999/xlink" version="1.1" width="1280" height="1024" viewBox="0 0 1280 1024" xml:space="preserve">
<desc>Created with Fabric.js 5.3.0</desc>
<defs>
</defs>
<g transform="matrix(1 0 0 1 640 512)" id="background-logo"  >
<rect style="stroke: none; stroke-width: 0; stroke-dasharray: none; stroke-linecap: butt; stroke-dashoffset: 0; stroke-linejoin: miter; stroke-miterlimit: 4; fill: rgb(255,255,255); fill-opacity: 0; fill-rule: nonzero; opacity: 1;"  paint-order="stroke"  x="-640" y="-512" rx="0" ry="0" width="1280" height="1024" />
</g>
<g transform="matrix(4.739073608307409 0 0 4.739073608307409 641.024469897766 513.0717531238167)" id="logo-logo"  >
<g style=""  paint-order="stroke"   >
		<g transform="matrix(1.0920741339808608 0 0 1.0920741339808608 -31.34804368743312 10.433069959762634)"  >
<path style="stroke: none; stroke-width: 1; stroke-dasharray: none; stroke-linecap: butt; stroke-dashoffset: 0; stroke-linejoin: miter; stroke-miterlimit: 4; fill: rgb(174,189,172); fill-rule: nonzero; opacity: 1;"  paint-order="stroke"  transform=" translate(-271.2947048722222, -209.5538213736299)" d="M 283.9716797 146.7470703 L 275.5532227 142.2304687 C 275.5532227 142.2304687 275.5532227 222.0703125 275.5532227 238.9199218 C 275.5532227 247.2070312 272.81933599999996 266.0624999 263.16210939999996 273.8105468 C 262.02441409999994 274.7246093 259.84374999999994 276.1777343 258.2451172 276.3242187 C 263.64404299999995 277.7382812 271.37451169999997 276.5742187 276.2397461 271.2714843 C 282.1157227 265.3437499 283.5830078 254.7285155 283.9716797 246.5624999 C 284.8100586 228.953125 283.9716797 146.7470703 283.9716797 146.7470703 z" stroke-linecap="round" />
</g>
		<g transform="matrix(1.0920741339808608 0 0 1.0920741339808608 -45.59966448370477 3.477762884715105)"  >
<path style="stroke: none; stroke-width: 1; stroke-dasharray: none; stroke-linecap: butt; stroke-dashoffset: 0; stroke-linejoin: miter; stroke-miterlimit: 4; fill: rgb(174,189,172); fill-rule: nonzero; opacity: 1;"  paint-order="stroke"  transform=" translate(-258.2446560222222, -203.1849249236299)" d="M 270.921875 140.378418 L 262.5029297 135.8618164 C 262.5029297 135.8618164 262.5029297 215.70117190000002 262.5029297 232.55078120000002 C 262.5029297 240.8378906 259.7695313 259.6933593 250.11230469999998 267.4414062 C 248.9741211 268.3554687 246.7939453 269.8085937 245.19482419999997 269.95507810000004 C 250.59423829999997 271.36914060000004 258.324707 270.20507810000004 263.18994139999995 264.9023437 C 269.06591799999995 258.9746093 270.5332031 248.3593749 270.92187499999994 240.1953124 C 271.7602539 222.5839844 270.921875 140.378418 270.921875 140.378418 z" stroke-linecap="round" />
</g>
		<g transform="matrix(1.0920741339808608 0 0 1.0920741339808608 -59.851137152254296 -3.477526638009465)"  >
<path style="stroke: none; stroke-width: 1; stroke-dasharray: none; stroke-linecap: butt; stroke-dashoffset: 0; stroke-linejoin: miter; stroke-miterlimit: 4; fill: rgb(174,189,172); fill-rule: nonzero; opacity: 1;"  paint-order="stroke"  transform=" translate(-245.19474281111115, -196.8160445460946)" d="M 257.8720703 134.0097656 L 249.45312500000003 129.493164 C 249.45312500000003 129.493164 249.45312500000003 209.3339843 249.45312500000003 226.1816406 C 249.45312500000003 234.4707031 246.71972660000003 253.32421870000002 237.06250000000003 261.07226560000004 C 235.92431640000004 261.98632810000004 233.74414060000004 263.43945310000004 232.14501950000002 263.58593750000006 C 237.54443360000002 265.00000000000006 245.274414 263.83593750000006 250.13964840000003 258.5351562000001 C 256.015625 252.60742180000008 257.48339840000006 241.99218740000006 257.8720703 233.82617180000008 C 258.7099609 216.2148438 257.8720703 134.0097656 257.8720703 134.0097656 z" stroke-linecap="round" />
</g>
		<g transform="matrix(1.0920741339808608 0 0 1.0920741339808608 -74.10249129435789 -10.432381082934029)"  >
<path style="stroke: none; stroke-width: 1; stroke-dasharray: none; stroke-linecap: butt; stroke-dashoffset: 0; stroke-linejoin: miter; stroke-miterlimit: 4; fill: rgb(174,189,172); fill-rule: nonzero; opacity: 1;"  paint-order="stroke"  transform=" translate(-232.14493813333334, -190.44756256440667)" d="M 244.8222656 127.6411133 L 236.40332030000002 123.1245117 C 236.40332030000002 123.1245117 236.40332030000002 202.96484370000002 236.40332030000002 219.81445309999998 C 236.40332030000002 228.10156249999997 233.66992190000002 246.9570312 224.01220700000002 254.70507809999998 C 222.87451170000003 255.61718749999997 220.69384760000003 257.0722656 219.0952148 257.21679689999996 C 224.4946289 258.63281249999994 232.2246093 257.46679689999996 237.08984370000002 252.16601559999995 C 242.96582030000002 246.23828119999996 244.43310540000002 235.62304679999994 244.8222656 227.45703119999996 C 245.6601563 209.8476563 244.8222656 127.6411133 244.8222656 127.6411133 z" stroke-linecap="round" />
</g>
		<g transform="matrix(1.0920741339808608 0 0 1.0920741339808608 31.349145521069033 -38.103269726319695)"  >
<path style="stroke: none; stroke-width: 1; stroke-dasharray: none; stroke-linecap: butt; stroke-dashoffset: 0; stroke-linejoin: miter; stroke-miterlimit: 4; fill: rgb(146,168,163); fill-rule: nonzero; opacity: 1;"  paint-order="stroke"  transform=" translate(-328.7058157644439, -165.10964109700691)" d="M 336.8378906 126.1899414 C 337.9765625 125.2763672 340.15625 123.8227539 341.75585939999996 123.67675779999999 C 336.3554688 122.26220699999999 328.62499999999994 123.42675779999999 323.7597656 128.72851559999998 C 317.8847656 134.65624999999997 316.41796869999996 145.2714844 316.02734369999996 153.43701169999997 C 315.71484369999996 160.03759759999997 315.6347656 175.71435549999998 315.66015619999996 192.73437499999997 L 324.4472656 207.09570309999998 C 324.4472656 187.6752929 324.4472656 168.41308589999997 324.4472656 161.08007809999998 C 324.4472656 152.7929688 327.1796875 133.9379883 336.8378906 126.1899414 z" stroke-linecap="round" />
</g>
		<g transform="matrix(1.0920741339808608 0 0 1.0920741339808608 45.60005307811991 -22.980869040128596)"  >
<path style="stroke: none; stroke-width: 1; stroke-dasharray: none; stroke-linecap: butt; stroke-dashoffset: 0; stroke-linejoin: miter; stroke-miterlimit: 4; fill: rgb(146,168,163); fill-rule: nonzero; opacity: 1;"  paint-order="stroke"  transform=" translate(-341.75521150931246, -178.95705329700695)" d="M 349.8886719 132.5585938 C 351.0253907 131.6450196 353.20703130000004 130.1914063 354.8046875 130.04541020000002 C 349.40625 128.63085940000002 341.6757812 129.79541020000002 336.8105469 135.097168 C 330.93359380000004 141.0249024 329.4667969 151.64013680000002 329.078125 159.8056641 C 328.671875 168.3300782 328.6601562 191.98925789999998 328.7539062 214.1347657 L 337.4960937 228.4218751 C 337.4960937 204.85546879999998 337.4960937 176.6860353 337.4960937 167.4487306 C 337.4960938 159.1616211 340.2304688 140.3066406 349.8886719 132.5585938 z" stroke-linecap="round" />
</g>
		<g transform="matrix(1.0920741339808608 0 0 1.0920741339808608 59.85186885926993 -7.857402052753201)"  >
<path style="stroke: none; stroke-width: 1; stroke-dasharray: none; stroke-linecap: butt; stroke-dashoffset: 0; stroke-linejoin: miter; stroke-miterlimit: 4; fill: rgb(146,168,163); fill-rule: nonzero; opacity: 1;"  paint-order="stroke"  transform=" translate(-354.80543890477225, -192.80544189700694)" d="M 362.9375 138.9272461 C 364.0761719 138.0136719 366.2558594 136.5600586 367.8554688 136.4140625 C 362.4550782 134.9995117 354.72460939999996 136.1640625 349.859375 141.4658203 C 343.984375 147.39355469999998 342.5175781 158.0087891 342.1289062 166.17431639999998 C 341.62695310000004 176.69482419999997 341.7246093 210.2636719 341.88476560000004 235.59375 L 350.546875 249.75 C 350.546875 224.8769531 350.546875 185.13574219999998 350.546875 173.81738280000002 C 350.546875 165.5302734 353.28125 146.675293 362.9375 138.9272461 z" stroke-linecap="round" />
</g>
		<g transform="matrix(1.0920741339808608 0 0 1.0920741339808608 74.10288765568822 7.2649985709167595)"  >
<path style="stroke: none; stroke-width: 1; stroke-dasharray: none; stroke-linecap: butt; stroke-dashoffset: 0; stroke-linejoin: miter; stroke-miterlimit: 4; fill: rgb(146,168,163); fill-rule: nonzero; opacity: 1;"  paint-order="stroke"  transform=" translate(-367.85493651027826, -206.6528540397571)" d="M 362.9101563 147.8344727 C 357.0332032 153.76220709999998 355.5664063 164.3774415 355.17773439999996 172.54296879999998 C 354.56835939999996 185.36962899999997 354.8457031 232.45703129999998 355.0429688 257.0976563 L 363.5976563 271.07617189999996 C 363.5976563 252.41992189999996 363.5976563 194.27832029999996 363.5976563 180.18652349999996 C 363.5976563 171.89892579999997 366.3300782 153.04394539999996 375.9882813 145.29589849999996 C 377.12500009999997 144.38232429999996 379.3066407 142.92871099999996 380.90429689999996 142.78271489999997 C 375.5058594 141.3681641 367.7753906 142.5327148 362.9101563 147.8344727 z" stroke-linecap="round" />
</g>
		<g transform="matrix(1.0920741339808608 0 0 1.0920741339808608 27.74790808094582 15.795470633301875)"  >
<polygon style="stroke: none; stroke-width: 1; stroke-dasharray: none; stroke-linecap: butt; stroke-dashoffset: 0; stroke-linejoin: miter; stroke-miterlimit: 4; fill: rgb(149,123,138); fill-rule: nonzero; opacity: 1;"  paint-order="stroke"  points="38.18945315000002,62.410888650000004 -38.18945314999996,-62.410888650000004 -38.18945314999996,-53.168701150000004 29.769531250000057,57.895263650000004 " />
</g>
		<g transform="matrix(1.0920741339808608 0 0 1.0920741339808608 20.62169773796029 20.48664358285555)"  >
<polygon style="stroke: none; stroke-width: 1; stroke-dasharray: none; stroke-linecap: butt; stroke-dashoffset: 0; stroke-linejoin: miter; stroke-miterlimit: 4; fill: rgb(149,123,138); fill-rule: nonzero; opacity: 1;"  paint-order="stroke"  points="23.246093799999983,47.23046875 31.6640625,51.74804684999998 -31.6640625,-51.74804685000001 -31.6640625,-42.50585935000001 " />
</g>
		<g transform="matrix(1.0920741339808608 0 0 1.0920741339808608 13.495487449578377 25.17701664270976)"  >
<polygon style="stroke: none; stroke-width: 1; stroke-dasharray: none; stroke-linecap: butt; stroke-dashoffset: 0; stroke-linejoin: miter; stroke-miterlimit: 4; fill: rgb(149,123,138); fill-rule: nonzero; opacity: 1;"  paint-order="stroke"  points="16.720703100000037,36.56640629999998 25.13867190000002,41.08398440000002 -25.138671899999963,-41.08398439999999 -25.138671899999963,-31.8427734 " />
</g>
		<g transform="matrix(1.0920741339808608 0 0 1.0920741339808608 6.370343571588478 29.866589922071967)"  >
<polygon style="stroke: none; stroke-width: 1; stroke-dasharray: none; stroke-linecap: butt; stroke-dashoffset: 0; stroke-linejoin: miter; stroke-miterlimit: 4; fill: rgb(149,123,138); fill-rule: nonzero; opacity: 1;"  paint-order="stroke"  points="10.194335999999964,25.90307610000002 18.61425779999996,30.420654299999995 -18.61425780000002,-30.420654299999995 -18.61425780000002,-21.178955099999996 " />
</g>
</g>
</g>
</svg>