<?xml version="1.0" encoding="UTF-8" standalone="no" ?>
<!DOCTYPE svg PUBLIC "-//W3C//DTD SVG 1.1//EN" "http://www.w3.org/Graphics/SVG/1.1/DTD/svg11.dtd">
<svg xmlns="http://www.w3.org/2000/svg" xmlns:xlink="http://www.w3.org/1999/xlink" version="1.1" width="1280" height="1024" viewBox="0 0 1280 1024" xml:space="preserve">
<desc>Created with Fabric.js 5.3.0</desc>
<defs>
</defs>
<g transform="matrix(1 0 0 1 640 512)" id="background-logo"  >
<rect style="stroke: none; stroke-width: 0; stroke-dasharray: none; stroke-linecap: butt; stroke-dashoffset: 0; stroke-linejoin: miter; stroke-miterlimit: 4; fill: rgb(255,255,255); fill-opacity: 0; fill-rule: nonzero; opacity: 1;"  paint-order="stroke"  x="-640" y="-512" rx="0" ry="0" width="1280" height="1024" />
</g>
<g transform="matrix(4.701776636995516 0 0 4.701776636995516 641.2301224317479 512.9840979453983)" id="logo-logo"  >
<g style=""  paint-order="stroke"   >
		<g transform="matrix(1.0155779748522922 0 0 1.0155779748522922 -61.384177365119115 32.29090493985868)"  >
<path style="stroke: none; stroke-width: 1; stroke-dasharray: none; stroke-linecap: butt; stroke-dashoffset: 0; stroke-linejoin: miter; stroke-miterlimit: 4; fill: rgb(149,123,138); fill-rule: nonzero; opacity: 1;"  paint-order="stroke"  transform=" translate(-237.20739744999997, -452.74560617647944)" d="M 263.2991333 424.2204895 C 260.4680176 419.3418579 259.1678772 416.936554 259.1590576 416.90933229999996 L 250.7063141 401.19082639999993 L 250.7063141 454.32574459999995 C 250.7063141 465.7137450999999 245.74604799999997 476.37698359999996 237.09403989999998 483.5839232999999 C 231.155487 488.29046629999993 224.8862762 492.4533690999999 217.93293759999997 495.56536859999994 C 210.71684259999998 498.8132628999999 203.22912599999998 500.81088249999993 195.45587159999997 502.94442739999994 C 207.76338199999998 506.14703359999993 221.03591919999997 503.39285269999993 232.22004699999997 497.65814199999994 C 236.00692749999996 495.66046129999995 239.60823059999996 493.28683459999996 242.84701539999998 490.49191279999997 C 253.55094909999997 481.5681762 259.6934204 468.39089959999995 259.6934204 454.32574459999995 L 259.6934204 435.80780029999994 C 260.279541 436.7904967999999 260.90417479999996 437.83334349999996 261.5646362 438.9307860999999 C 261.5648498 438.9312438999999 261.5650634 438.9316710999999 261.5655212 438.9320677999999 C 267.9085998 449.3309324999999 278.9589233 450.09490959999994 278.9589233 450.09490959999994 C 271.37146 437.932251 266.2572632 429.3120422 263.2991333 424.2204895 z" stroke-linecap="round" />
</g>
		<g transform="matrix(1.0155779748522922 0 0 1.0155779748522922 61.3841776190136 -32.29092042742283)"  >
<path style="stroke: none; stroke-width: 1; stroke-dasharray: none; stroke-linecap: butt; stroke-dashoffset: 0; stroke-linejoin: miter; stroke-miterlimit: 4; fill: rgb(149,123,138); fill-rule: nonzero; opacity: 1;"  paint-order="stroke"  transform=" translate(-358.09260570000004, -389.15440297352063)" d="M 332.0008545 417.6795044 C 334.8320007 422.558136 336.1321106 424.96343989999997 336.1409607 424.9906616 L 344.593689 440.70916750000004 L 344.593689 387.5742493 C 344.593689 376.18624880000004 349.5539551 365.5230103 358.2059632 358.3161011 C 364.1445008 353.6095581 370.4137269 349.44665530000003 377.36706549999997 346.3346558 C 384.58316049999996 343.0867615 392.07086189999995 341.0891419 399.8441163 338.955597 C 387.5366212 335.7529908 374.2640687 338.5071717 363.0799561 344.2418824 C 359.2930909 346.2395631 355.6917725 348.6131898 352.453003 351.4081116 C 341.749054 360.33184819999997 335.606598 373.5091248 335.606598 387.57424929999996 L 335.606598 406.0922242 C 335.0204469 405.1094971 334.39584360000003 404.06668099999996 333.7353822 402.9692078 C 333.7351686 402.9687806 333.7349244 402.9683228 333.7344972 402.9679566 C 327.3914186 392.5690919 316.3410951 391.80511479999996 316.3410951 391.80511479999996 C 323.9285583 403.9677429 329.0427551 412.5879822 332.0008545 417.6795044 z" stroke-linecap="round" />
</g>
		<g transform="matrix(1.0155779748522922 0 0 1.0155779748522922 -34.86294961823279 -3.0639350733904394)"  >
<path style="stroke: none; stroke-width: 1; stroke-dasharray: none; stroke-linecap: butt; stroke-dashoffset: 0; stroke-linejoin: miter; stroke-miterlimit: 4; fill: rgb(149,123,138); fill-rule: nonzero; opacity: 1;"  paint-order="stroke"  transform=" translate(-263.32181545000003, -417.93307489999995)" d="M 305.8795471 450.6293945 L 305.8841858 450.6293945 C 304.8015137 449.0167846 303.714386 447.3497924 302.6317139 445.6103515 C 288.5438843 423.0382079 267.9784851 388.1539916 267.77014160000004 387.80517569999995 L 267.737854 387.82421869999996 L 267.7475891 387.76440419999994 C 256.67648310000004 369.40499869999996 245.73698420000002 356.77581779999997 234.30380250000002 349.15664659999993 C 224.4423676 342.58837879999993 214.03724670000003 339.5262144999999 201.548584 339.5262144999999 L 187.10289 339.5262144999999 L 198.9981232 347.7207029999999 C 219.90788270000002 362.1255491999999 226.960968 375.6516416999999 226.960968 401.3267210999999 L 226.960968 476.7937010999999 C 227.8939209 476.1006163999999 228.8361664 475.38046259999993 229.7965393 474.61941519999993 C 229.8219147 474.59808339999995 229.847229 474.57669059999995 229.8724976 474.5552672999999 C 233.7726288 471.24948119999993 235.9480896 466.3401488999999 235.9480896 461.2274779999999 L 235.9480896 401.3267211999999 C 235.9480896 386.6727294999999 233.67410280000001 375.4885558999999 228.79104610000002 366.1253966999999 C 225.9326934 360.6488341999999 222.0641937 355.5708922999999 216.94999690000003 350.6514891999999 C 229.63352960000003 354.6015013999999 243.68041990000003 365.2692564999999 260.0287475 392.3667296999999 L 260.0933227 392.3821410999999 L 260.05129999999997 392.4074706999999 C 260.8756408 393.8117370999999 281.07873529999995 428.0527343999999 295.00354 450.3712157999999 C 316.63790889999996 485.0425109999999 329.9465026 494.5189818999999 339.5407409 496.3399352999999 C 322.7124634 478.0031738 305.8795471 450.6293945 305.8795471 450.6293945 z" stroke-linecap="round" />
</g>
		<g transform="matrix(1.0155779748522922 0 0 1.0155779748522922 34.862957285846505 3.063904047483078)"  >
<path style="stroke: none; stroke-width: 1; stroke-dasharray: none; stroke-linecap: butt; stroke-dashoffset: 0; stroke-linejoin: miter; stroke-miterlimit: 4; fill: rgb(149,123,138); fill-rule: nonzero; opacity: 1;"  paint-order="stroke"  transform=" translate(-331.978195, -423.9669189499999)" d="M 289.4204712 391.2706299 L 289.4158325 391.2706299 C 290.49850460000005 392.8832092 291.58563230000004 394.5502014 292.66833490000005 396.2896424 C 306.75613400000003 418.861786 327.32150260000003 453.7460023 327.5298766 454.09481819999996 L 327.56216420000004 454.07577519999995 L 327.55242910000004 454.13558969999997 C 338.6235351 472.49499519999995 349.56301870000004 485.12414559999996 360.9961852 492.7433473 C 370.8576354 499.3115846 381.2627562 502.3737489 393.7514037 502.3737489 L 408.19711290000004 502.3737489 L 396.30187970000003 494.1792909 C 375.3921202 479.7744142 368.33901960000003 466.2483522 368.33901960000003 440.57327280000004 L 368.33901960000003 365.10632330000004 C 367.40606670000005 365.79937750000005 366.4638365 366.5195618 365.5034483 367.2806092 C 365.4780882 367.301941 365.4527586 367.3233033 365.42749 367.3447266 C 361.52737399999995 370.6505433 359.3519285 375.5598755 359.3519285 380.6725464 L 359.3519285 440.57327269999996 C 359.3519285 455.22726439999997 361.6259153 466.411438 366.50897199999997 475.77456659999996 C 369.36730939999995 481.25115959999994 373.23580919999995 486.3291015 378.3500059 491.24850459999993 C 365.6664732 487.29846189999995 351.6195677 476.6307372999999 335.2712705 449.53326409999994 L 335.20669530000004 449.51785269999993 L 335.24871800000005 449.4925230999999 C 334.42437720000004 448.08825669999993 314.2212827000001 413.8472898999999 300.29647800000004 391.5288084999999 C 278.66213960000005 356.85751329999994 265.35354590000003 347.3810423999999 255.75927710000002 345.5600889999999 C 272.5875549 363.8968201 289.4204712 391.2706299 289.4204712 391.2706299 z" stroke-linecap="round" />
</g>
</g>
</g>
</svg>